<svg version="1.1" xmlns="http://www.w3.org/2000/svg" viewBox="0 0 555 482" width="555" height="482">
  <!-- svg-source:excalidraw -->

  <defs>
    <style>
      @font-face {
        font-family: "Virgil";
        src: url("https://excalidraw.com/Virgil.woff2");
      }
      @font-face {
        font-family: "Cascadia";
        src: url("https://excalidraw.com/Cascadia.woff2");
      }
    </style>
  </defs>
  <g stroke-opacity="0.4" fill-opacity="0.4" stroke-linecap="round" transform="translate(158.5 10) rotate(0 120.5 26)"><path d="M-0.05 1.18 C90.52 1.01, 182.82 -0.17, 241.2 1.59 M0.36 -0.03 C73.92 -0.93, 147.93 -0.51, 241.62 0.69 M241.76 -0.91 C240.19 19.13, 242.29 35.99, 240.68 52.09 M241.14 0.1 C242.1 14.57, 240.75 30.37, 240.89 51.24 M242.56 50.44 C193.35 54.84, 143.53 54.63, 1.44 51.39 M241.5 52.08 C188.77 50.81, 136.62 51.7, 0.39 51.94 M-1.92 51.11 C-1.41 35.58, 1.96 19.16, -1.96 -1.64 M-0.15 51.17 C-0.16 30.88, 0.15 11.58, -0.88 0.42" stroke="#000000" stroke-width="1" fill="none"></path></g><g transform="translate(163.5 24) rotate(0 115.5 12)"><text x="115.5" y="17" font-family="Virgil, Segoe UI Emoji" font-size="20px" fill="#000000" text-anchor="middle" style="white-space: pre;" direction="ltr">ibek.defs.schema.json</text></g><g stroke-opacity="0.4" fill-opacity="0.4" stroke-linecap="round" transform="translate(10 129) rotate(0 120.5 24)"><path d="M0.47 -0.39 C91.63 -1.83, 186.11 -0.91, 240.45 0.02 M0.18 0.46 C93.75 2.37, 187.47 1.09, 241.56 0.35 M242.63 1.85 C243.02 12.07, 239.45 22.21, 242.45 48.48 M241.63 0.64 C240.14 19.2, 241.16 36.53, 241.68 48.89 M240.54 47.2 C186.08 49.6, 132.17 49.5, 0.97 48.19 M241.74 48.78 C188.43 47.54, 135.98 47.35, 0.55 48.33 M-1.68 49.02 C0.87 32.43, -0.81 18.95, 1.81 -0.65 M0.24 47.54 C-0.42 31.97, 1.24 16.95, 0.39 0.39" stroke="#000000" stroke-width="1" fill="none"></path></g><g transform="translate(15 141) rotate(0 115.5 12)"><text x="115.5" y="17" font-family="Virgil, Segoe UI Emoji" font-size="20px" fill="#000000" text-anchor="middle" style="white-space: pre;" direction="ltr">pmac.ibek.support.yaml</text></g><g stroke-opacity="0.4" fill-opacity="0.4" stroke-linecap="round" transform="translate(304 127.5) rotate(0 120.5 24.5)"><path d="M1.63 -0.46 C71.9 -1.2, 141.33 1.01, 242.05 -1.6 M-0.76 0.37 C82.06 1.51, 162.93 2.66, 240.47 0 M239.46 0.82 C242.31 16.18, 241.61 33.82, 239.13 48.07 M241.09 0.23 C241.1 11.84, 240.21 22.23, 240.15 49.89 M239.74 49.76 C155.85 49.43, 66.15 51.52, 0.69 47.75 M241.71 49.66 C178.83 51.23, 117.69 51.58, 0.21 48.66 M-1.08 48.81 C-0.4 38.89, -0.07 27.62, 0.7 -0.84 M-0.49 49 C-0.41 39.33, 1.13 29.39, -0.44 -0.93" stroke="#000000" stroke-width="1" fill="none"></path></g><g transform="translate(309 140) rotate(0 115.5 12)"><text x="115.5" y="17" font-family="Virgil, Segoe UI Emoji" font-size="20px" fill="#000000" text-anchor="middle" style="white-space: pre;" direction="ltr">asyn.ibek.support.yaml</text></g><g stroke-linecap="round"><g stroke-opacity="0.4" fill-opacity="0.4" transform="translate(262.32353302766984 67.48571428571428) rotate(0 -55.14057510770081 26.337540763801506)"><path d="M0.42 -0.5 C-18 8.6, -92.35 44.44, -110.7 53.54 M-0.82 -1.81 C-18.87 7.49, -90.32 45.01, -108.6 54.49" stroke="#000000" stroke-width="1" fill="none"></path></g><g stroke-opacity="0.4" fill-opacity="0.4" transform="translate(262.32353302766984 67.48571428571428) rotate(0 -55.14057510770081 26.337540763801506)"><path d="M-89.2 30.41 C-96.14 38.47, -100.99 44.95, -110.34 55.04 M-89.29 32.4 C-95.76 39.91, -103.73 49.05, -108.77 53.56" stroke="#000000" stroke-width="1" fill="none"></path></g><g stroke-opacity="0.4" fill-opacity="0.4" transform="translate(262.32353302766984 67.48571428571428) rotate(0 -55.14057510770081 26.337540763801506)"><path d="M-79.7 48.6 C-89.17 51.55, -96.7 52.89, -110.34 55.04 M-79.79 50.59 C-89.8 51.37, -101.27 53.82, -108.77 53.56" stroke="#000000" stroke-width="1" fill="none"></path></g></g><g stroke-linecap="round"><g stroke-opacity="0.4" fill-opacity="0.4" transform="translate(317.6574223727208 67.6) rotate(0 51.60746490483561 24.32583019404206)"><path d="M-0.96 -0.3 C16.47 7.84, 86.59 40.6, 104.18 48.83 M0.74 -1.5 C18.09 6.81, 86.26 41.52, 103.52 50.15" stroke="#000000" stroke-width="1" fill="none"></path></g><g stroke-opacity="0.4" fill-opacity="0.4" transform="translate(317.6574223727208 67.6) rotate(0 51.60746490483561 24.32583019404206)"><path d="M73.24 47.53 C80.95 49.36, 89.28 50.37, 102.25 51.54 M72.87 46.27 C84.38 48.05, 96.98 49.21, 104.36 50.35" stroke="#000000" stroke-width="1" fill="none"></path></g><g stroke-opacity="0.4" fill-opacity="0.4" transform="translate(317.6574223727208 67.6) rotate(0 51.60746490483561 24.32583019404206)"><path d="M82.48 29.21 C87.74 35.84, 93.61 41.72, 102.25 51.54 M82.12 27.95 C90.1 36.76, 99.13 45, 104.36 50.35" stroke="#000000" stroke-width="1" fill="none"></path></g></g><g stroke-linecap="round"><g stroke-opacity="0.4" fill-opacity="0.4" transform="translate(162.07257939382708 188.6) rotate(0 43.90198647265987 29.71841828030003)"><path d="M0.65 0.69 C15.18 10.23, 71.72 48.62, 86.05 58.42 M-0.47 0 C14.53 10.17, 73.91 49.29, 88.27 59.43" stroke="#000000" stroke-width="1" fill="none"></path></g><g stroke-opacity="0.4" fill-opacity="0.4" transform="translate(162.07257939382708 188.6) rotate(0 43.90198647265987 29.71841828030003)"><path d="M60.33 50.53 C63.56 52.9, 71.32 56.09, 88.03 60.03 M59.25 51.53 C65.17 53.11, 72.55 56.47, 87.69 59.19" stroke="#000000" stroke-width="1" fill="none"></path></g><g stroke-opacity="0.4" fill-opacity="0.4" transform="translate(162.07257939382708 188.6) rotate(0 43.90198647265987 29.71841828030003)"><path d="M71.86 33.55 C72.88 39.47, 78.28 46.15, 88.03 60.03 M70.77 34.55 C73.94 40.11, 78.62 47.45, 87.69 59.19" stroke="#000000" stroke-width="1" fill="none"></path></g></g><g stroke-linecap="round"><g stroke-opacity="0.4" fill-opacity="0.4" transform="translate(409.9711491434757 188.8) rotate(0 -46.62172625578512 26.966021459260958)"><path d="M0.83 0.1 C-14.65 9.24, -78.29 44.51, -94.07 53.81 M-0.19 -0.9 C-15.22 8.45, -76.73 45.65, -91.94 54.83" stroke="#000000" stroke-width="1" fill="none"></path></g><g stroke-opacity="0.4" fill-opacity="0.4" transform="translate(409.9711491434757 188.8) rotate(0 -46.62172625578512 26.966021459260958)"><path d="M-72.96 29.62 C-78.76 34.77, -79.05 41.82, -92.32 55.22 M-74.05 32.11 C-75.96 36.97, -81.55 41.44, -91.56 55.65" stroke="#000000" stroke-width="1" fill="none"></path></g><g stroke-opacity="0.4" fill-opacity="0.4" transform="translate(409.9711491434757 188.8) rotate(0 -46.62172625578512 26.966021459260958)"><path d="M-62.35 47.19 C-70.14 48.87, -72.56 52.38, -92.32 55.22 M-63.44 49.68 C-67.7 50.82, -75.5 51.63, -91.56 55.65" stroke="#000000" stroke-width="1" fill="none"></path></g></g><g stroke-opacity="0.4" fill-opacity="0.4" stroke-linecap="round" transform="translate(98 259) rotate(0 186.5 29.5)"><path d="M0.39 -1.17 C85.87 0.41, 171.76 1.7, 372.76 0.33 M-0.35 -0.27 C94.9 -0.31, 190.5 -0.87, 372.39 -0.53 M374.9 1.84 C373.13 22.77, 373.6 43.13, 372.03 57.07 M372.38 0.3 C373.27 17.73, 371.47 36.03, 372.15 58.94 M372.02 57.91 C233.03 60.14, 91.69 60.31, 0.41 60.21 M372.91 59.21 C270.82 57.09, 168.1 57.7, -0.49 58.68 M-0.3 59.19 C0.94 36.25, 0.17 14.83, 1.97 1.26 M-0.81 59.35 C0.69 35.03, 0.44 12.31, -0.98 0.44" stroke="#000000" stroke-width="1" fill="none"></path></g><g transform="translate(103 275.5) rotate(0 181.5 13)"><text x="181.5" y="18" font-family="Virgil, Segoe UI Emoji" font-size="20px" fill="#000000" text-anchor="middle" style="white-space: pre;" direction="ltr">container.ibek.entities.schema.json</text></g><g stroke-linecap="round"><g stroke-opacity="0.4" fill-opacity="0.4" transform="translate(277.9821970089482 322.28571428571433) rotate(0 1.1699015119663159 46.924988848716)"><path d="M-0.31 -0.83 C-0.3 15, 0.07 78.98, 0.23 94.68 M1.72 1.35 C2.11 16.86, 2.9 77.41, 2.58 92.91" stroke="#000000" stroke-width="1" fill="none"></path></g><g stroke-opacity="0.4" fill-opacity="0.4" transform="translate(277.9821970089482 322.28571428571433) rotate(0 1.1699015119663159 46.924988848716)"><path d="M-9.03 63.56 C-3.37 73.2, -2.31 82.67, 3.8 93.66 M-7.56 64.06 C-5.6 72.17, -1.61 79.46, 3.01 93.45" stroke="#000000" stroke-width="1" fill="none"></path></g><g stroke-opacity="0.4" fill-opacity="0.4" transform="translate(277.9821970089482 322.28571428571433) rotate(0 1.1699015119663159 46.924988848716)"><path d="M11.49 63.58 C10.7 73.17, 5.32 82.63, 3.8 93.66 M12.96 64.08 C9.24 71.99, 7.54 79.27, 3.01 93.45" stroke="#000000" stroke-width="1" fill="none"></path></g></g><g stroke-opacity="0.4" fill-opacity="0.4" stroke-linecap="round" transform="translate(158 422) rotate(0 120.5 25)"><path d="M-0.1 -0.78 C71.88 0.72, 143.17 -0.37, 242.15 0.92 M0.41 0.05 C67.11 -1.76, 136.02 -1.46, 241.52 -0.71 M241.23 -0.41 C240.96 14.15, 238.87 30.09, 239.84 49.38 M241.85 0.36 C241.15 11.63, 241.93 24.67, 240.58 50.31 M240.55 51.03 C148.3 50.83, 57.35 49.58, -0.35 51.51 M241.42 49.52 C145.88 50.71, 50.95 49.88, -0.23 50.59 M-1.29 49.77 C1.68 32.49, 0.94 10.69, 0.62 -0.49 M0.59 50.62 C0.22 31.95, 0.47 16.3, -0.71 -0.49" stroke="#000000" stroke-width="1" fill="none"></path></g><g transform="translate(163 435) rotate(0 115.5 12)"><text x="115.5" y="17" font-family="Virgil, Segoe UI Emoji" font-size="20px" fill="#000000" text-anchor="middle" style="white-space: pre;" direction="ltr">ioc.ibek.ioc.yaml</text></g></svg>