<?xml version="1.0" encoding="UTF-8" standalone="no"?>
<svg
   xmlns:osb="http://www.openswatchbook.org/uri/2009/osb"
   xmlns:dc="http://purl.org/dc/elements/1.1/"
   xmlns:cc="http://creativecommons.org/ns#"
   xmlns:rdf="http://www.w3.org/1999/02/22-rdf-syntax-ns#"
   xmlns:svg="http://www.w3.org/2000/svg"
   xmlns="http://www.w3.org/2000/svg"
   xmlns:sodipodi="http://sodipodi.sourceforge.net/DTD/sodipodi-0.dtd"
   xmlns:inkscape="http://www.inkscape.org/namespaces/inkscape"
   height="42"
   viewBox="0 0 50 42"
   width="50"
   version="1.1"
   id="svg36"
   sodipodi:docname="ibek-logo.svg"
   inkscape:version="1.0.1 (0767f8302a, 2020-10-17)">
  <metadata
     id="metadata42">
    <rdf:RDF>
      <cc:Work
         rdf:about="">
        <dc:format>image/svg+xml</dc:format>
        <dc:type
           rdf:resource="http://purl.org/dc/dcmitype/StillImage" />
        <dc:title />
      </cc:Work>
    </rdf:RDF>
  </metadata>
  <defs
     id="defs40">
    <linearGradient
       id="linearGradient1759"
       osb:paint="solid">
      <stop
         style="stop-color:#78882c;stop-opacity:1;"
         offset="0"
         id="stop1757" />
    </linearGradient>
  </defs>
  <sodipodi:namedview
     pagecolor="#ffffff"
     bordercolor="#666666"
     borderopacity="1"
     objecttolerance="10"
     gridtolerance="10"
     guidetolerance="10"
     inkscape:pageopacity="0"
     inkscape:pageshadow="2"
     inkscape:window-width="2081"
     inkscape:window-height="1215"
     id="namedview38"
     showgrid="true"
     inkscape:zoom="11.487179"
     inkscape:cx="-10.930618"
     inkscape:cy="39.285582"
     inkscape:window-x="132"
     inkscape:window-y="27"
     inkscape:window-maximized="0"
     inkscape:current-layer="svg36"
     inkscape:snap-grids="true"
     inkscape:snap-to-guides="true"
     inkscape:snap-others="true"
     inkscape:snap-global="false"
     inkscape:document-rotation="0">
    <inkscape:grid
       type="xygrid"
       id="grid892" />
  </sodipodi:namedview>
  <mask
     id="a"
     fill="#ffffff">
    <path
       d="M 0,0 H 313.30315 V 159.86486 H 0 Z"
       fill="#ffffff"
       fill-rule="evenodd"
       id="path2" />
  </mask>
  <mask
     id="b"
     fill="#ffffff">
    <path
       d="M 0,0 H 313.30315 V 159.86486 H 0 Z"
       fill="#ffffff"
       fill-rule="evenodd"
       id="path5" />
  </mask>
  <circle
     style="fill:#e3d7ac;fill-opacity:1;stroke:none;stroke-width:0;stroke-linecap:round;stroke-linejoin:round;stroke-opacity:1"
     id="path846"
     cx="25"
     cy="25.599989"
     r="22" />
  <circle
     style="fill:#e3d7ac;fill-opacity:1;stroke:none;stroke-width:0;stroke-linecap:round;stroke-linejoin:round;stroke-opacity:1"
     id="path846-3-3"
     cx="45.796329"
     cy="32.458164"
     r="2.5" />
  <circle
     style="fill:#e3d7ac;fill-opacity:1;stroke:none;stroke-width:0;stroke-linecap:round;stroke-linejoin:round;stroke-opacity:1"
     id="path846-3-5"
     cx="43.884838"
     cy="11.916348"
     r="2.5" />
  <circle
     style="fill:#e3d7ac;fill-opacity:1;stroke:none;stroke-width:0;stroke-linecap:round;stroke-linejoin:round;stroke-opacity:1"
     id="path846-3-7"
     cx="25.182711"
     cy="2.5400167"
     r="2.5" />
  <circle
     style="fill:#e3d7ac;fill-opacity:1;stroke:none;stroke-width:0;stroke-linecap:round;stroke-linejoin:round;stroke-opacity:1"
     id="path846-3-6"
     cx="6.1767545"
     cy="11.784588"
     r="2.5" />
  <circle
     style="fill:#e3d7ac;fill-opacity:1;stroke:none;stroke-width:0;stroke-linecap:round;stroke-linejoin:round;stroke-opacity:1"
     id="path846-3"
     cx="2.5115242"
     cy="31.988209"
     r="2.5" />
  <circle
     style="fill:#e3d7ac;fill-opacity:1;stroke:none;stroke-width:0;stroke-linecap:round;stroke-linejoin:round;stroke-opacity:1"
     id="path845"
     cx="25"
     cy="25.599989"
     r="0" />
  <ellipse
     style="fill:none;fill-opacity:1;stroke:#90713f;stroke-width:5.01306;stroke-miterlimit:4;stroke-dasharray:none;stroke-opacity:1"
     id="path1590"
     cx="24.999998"
     cy="27.100218"
     rx="4.9934683"
     ry="4.9934702" />
  <path
     id="path1739"
     style="fill:#a28153;fill-opacity:1;stroke:#e3d7ac;stroke-width:1;stroke-linecap:round;stroke-linejoin:round;stroke-miterlimit:4;stroke-dasharray:none;stroke-opacity:1"
     d="M 5.6909027,42.348016 C 3.9109914,39.316598 2.3585962,33.483404 2.5221195,25.600193 2.7795746,13.188672 12.58581,3.1223127 25.000002,3.1223127 c 12.414191,0 22.477881,10.0636903 22.477882,22.4778803 0,4.078445 -3.166151,13.820312 -11.864844,13.56486 9.747671,-5.924993 5.942003,-17.788629 2.054335,-21.561482 -6.847663,-6.645429 -17.283327,-4.639333 -20.626009,2.784889 -6.175097,13.715121 6.166616,19.259809 13.662708,22.11784"
     sodipodi:nodetypes="cssscssc" />
  <path
     style="fill:#90713f;fill-opacity:1;stroke:#90713f;stroke-width:1;stroke-linecap:butt;stroke-linejoin:round;stroke-miterlimit:4;stroke-dasharray:none;stroke-opacity:1"
     d="m 26.946675,21.167987 -0.373512,-7.470245 c 0,0 -2.02499,-0.922898 -2.436471,-1.650671 -0.852318,-1.507469 -1.213882,-5.6855163 0.482575,-8.1634503 0.299026,-0.436773 1.389429,-1.213133 1.389429,-1.213133 l -0.06202,-1.502501 c 0,0 -1.476818,0.3675485 -2,0.872908 -0.511798,0.494363 -0.746104,1.236028 -0.921185,1.925723 -0.636263,2.50643 -0.804616,5.194311 -0.395613,7.7476883 0.1343,0.838425 0.955185,2.720303 0.955185,2.720303 l -0.638387,6.733378"
     id="path1763"
     sodipodi:nodetypes="ccssccssscc" />
  <path
     style="fill:#90713f;fill-opacity:1;stroke:#90713f;stroke-width:1;stroke-linecap:butt;stroke-linejoin:round;stroke-miterlimit:4;stroke-dasharray:none;stroke-opacity:1"
     d="m 24.506474,30.718218 6.22987,11.425245 c 2.888345,-0.06201 0.318426,0.123395 2.944106,0.04012 L 28.10957,28.981065"
     id="path1763-0-3"
     sodipodi:nodetypes="cccc" />
  <path
     style="fill:#90713f;fill-opacity:1;stroke:#90713f;stroke-width:1;stroke-linecap:butt;stroke-linejoin:round;stroke-miterlimit:4;stroke-dasharray:none;stroke-opacity:1"
     d="m 30.546065,25.052507 8.037431,-6.539639 c 0,0 -0.930489,-1.995198 -0.618163,-2.770713 0.646934,-1.606357 1.646177,-3.068648 4.641194,-3.287719 0.527917,-0.03861 1.81481,0.329652 1.81481,0.329652 l 1.135886,-0.985453 c 0,0 -1.20828,-0.925279 -1.929599,-1.019125 -0.705623,-0.0918 -1.431525,0.187537 -2.079868,0.480768 -2.35615,1.065636 -2.737463,1.204596 -4.478479,3.116633 -0.571678,0.627835 -0.551963,2.382029 -0.551963,2.382029 l -8.465675,5.166615"
     id="path1763-6"
     sodipodi:nodetypes="ccssccssscc" />
  <path
     style="fill:#90713f;fill-opacity:1;stroke:#90713f;stroke-width:1;stroke-linecap:butt;stroke-linejoin:round;stroke-miterlimit:4;stroke-dasharray:none;stroke-opacity:1"
     d="m 29.578407,30.660166 11.761181,2.298653 c 0,0 1.368954,-1.862504 2.607048,-1.724733 1.238094,0.13777 1.139889,0.239647 0.826388,2.277998 l 1.63865,0.293925 c 0,0 0.68943,-1.583985 0.312978,-2.206391 -0.477693,-0.460565 0.04045,-0.851849 -1.870444,-1.277415 -1.910896,-0.425566 -2.478144,0.254128 -2.478144,0.254128 L 30.467324,26.76019"
     id="path1763-6-1"
     sodipodi:nodetypes="cczccczcc" />
  <path
     style="fill:#90713f;fill-opacity:1;stroke:#90713f;stroke-width:1;stroke-linecap:butt;stroke-linejoin:round;stroke-miterlimit:4;stroke-dasharray:none;stroke-opacity:1"
     d="m 21.958413,28.734108 -2.90057,6.894256 c 0,0 1.425045,1.709258 1.480507,2.543463 0.06712,1.009641 -0.426578,2.722905 -1.367854,4.271663 1.220661,0.02276 0.124639,-0.06081 1.242184,0.0036 0.616012,-1.127579 1.199887,-2.411148 1.542727,-3.562679 0.242292,-0.813811 -9.04e-4,-2.299022 -9.04e-4,-2.299022 l 3.608846,-6.117917"
     id="path1763-6-8"
     sodipodi:nodetypes="ccsccscc" />
  <path
     style="fill:#90713f;fill-opacity:1;stroke:#90713f;stroke-width:1;stroke-linecap:butt;stroke-linejoin:round;stroke-miterlimit:4;stroke-dasharray:none;stroke-opacity:1"
     d="M 20.178479,26.111977 15.1361,27.752828 c 0,0 -0.447523,2.179919 -1.065068,2.743489 -1.279142,1.16735 -7.4269609,2.843505 -10.221088,1.743064 -0.4925057,-0.193969 -1.4927046,-1.08353 -1.4927046,-1.08353 l -1.45073452,0.395888 c 0,0 0.68797602,1.357487 1.29737772,1.754647 0.596145,0.38851 1.371399,0.45133 2.082766,0.468056 2.5852161,0.06064 7.3987794,-0.766289 9.7964044,-1.735013 0.787281,-0.318089 1.640248,-1.306068 1.640248,-1.306068 l 5.348169,-0.722302"
     id="path1763-6-8-7"
     sodipodi:nodetypes="ccssccssscc" />
  <path
     style="fill:#90713f;fill-opacity:1;stroke:#90713f;stroke-width:1;stroke-linecap:butt;stroke-linejoin:round;stroke-miterlimit:4;stroke-dasharray:none;stroke-opacity:1"
     d="m 22.076118,22.142695 -4.403271,-2.800394 c 0,0 -1.983204,1.009567 -2.808873,0.878254 -1.710244,-0.271986 -6.8782855,-4.150891 -7.7604655,-7.02141 -0.155496,-0.505971 -0.08382,-1.842601 -0.08382,-1.842601 L 5.805516,10.469328 c 0,0 -0.6321729,1.384356 -0.5626211,2.10842 0.068047,0.708307 0.5023918,1.353527 0.9329295,1.92006 1.5647541,2.058778 5.2368726,5.424227 7.4893356,6.69444 0.739616,0.417085 2.430827,0.761592 2.430827,0.761592 l 3.883418,3.12433"
     id="path1763-6-8-9"
     sodipodi:nodetypes="ccssccssscc" />
</svg>
